<svg height="383pt" viewBox="-52 1 383 383.999" width="383pt" xmlns="http://www.w3.org/2000/svg"><path d="m.5 52.964844h278.070312v331.035156h-278.070312zm0 0" fill="#d3843d"/><path d="m119.671875 132.414062c0 25.597657-20.75 46.34375-46.34375 46.34375-25.597656 0-46.34375-20.746093-46.34375-46.34375 0-25.59375 20.746094-46.34375 46.34375-46.34375 25.59375 0 46.34375 20.75 46.34375 46.34375zm0 0" fill="#fdbd40"/><path d="m252.085938 132.414062c0 25.597657-20.75 46.34375-46.34375 46.34375-25.597657 0-46.347657-20.746093-46.347657-46.34375 0-25.59375 20.75-46.34375 46.347657-46.34375 25.59375 0 46.34375 20.75 46.34375 46.34375zm0 0" fill="#fdbd40"/><g fill="#394d5c"><path d="m.5 52.964844v-52.964844l52.964844 52.964844zm0 0"/><path d="m278.570312 52.964844v-52.964844l-52.96875 52.964844zm0 0"/><path d="m93.191406 132.414062c0 10.96875-8.894531 19.863282-19.863281 19.863282s-19.863281-8.894532-19.863281-19.863282 8.894531-19.863281 19.863281-19.863281 19.863281 8.894531 19.863281 19.863281zm0 0"/><path d="m225.601562 132.414062c0 10.96875-8.890624 19.863282-19.859374 19.863282s-19.863282-8.894532-19.863282-19.863282 8.894532-19.863281 19.863282-19.863281 19.859374 8.894531 19.859374 19.863281zm0 0"/></g><path d="m113.050781 185.378906 26.484375-19.863281 26.480469 19.863281-26.480469 46.34375zm0 0" fill="#fcf05a"/><path d="m26.984375 384h-26.484375v-185.378906l35.398438 8.847656c9.953124 2.488281 16.375 12.148438 14.8125 22.289062zm0 0" fill="#394d5c"/><path d="m66.707031 344.277344h39.722657c7.3125 0 13.242187 5.925781 13.242187 13.238281v26.484375h-66.207031v-26.484375c0-7.3125 5.929687-13.238281 13.242187-13.238281zm0 0" fill="#fcf05a"/><path d="m79.949219 364.136719h13.242187v13.242187h-13.242187zm0 0" fill="#d3843d"/><path d="m252.085938 384h26.484374v-185.378906l-35.398437 8.847656c-9.953125 2.488281-16.375 12.148438-14.816406 22.289062zm0 0" fill="#394d5c"/><path d="m225.601562 384h-66.207031v-26.484375c0-7.3125 5.929688-13.238281 13.242188-13.238281h39.722656c7.316406 0 13.242187 5.925781 13.242187 13.238281zm0 0" fill="#fcf05a"/><path d="m185.878906 364.136719h13.242188v13.242187h-13.242188zm0 0" fill="#d3843d"/></svg>